PathFileType	4	(X/Y/Z)	/mnt/D494C4CF94C4B4F0/Trampoline_predictions/poses3d/1_partie_0429.trc
DataRate	CameraRate	NumFrames	NumMarkers	Units	OrigDataRate	OrigDataStartFrame	OrigNumFrames
120	120	8	17	m	120	873	1746
Frame#	Time	Nose			L Eye			R Eye			L Ear			R Ear			L Shoulder			R Shoulder			L Elbow			R Elbow			L Wrist			R Wrist			L Hip			R Hip			L Knee			R Knee			L Ankle			R Ankle			
		X1	Y1	Z1	X2	Y2	Z2	X3	Y3	Z3	X4	Y4	Z4	X5	Y5	Z5	X6	Y6	Z6	X7	Y7	Z7	X8	Y8	Z8	X9	Y9	Z9	X10	Y10	Z10	X11	Y11	Z11	X12	Y12	Z12	X13	Y13	Z13	X14	Y14	Z14	X15	Y15	Z15	X16	Y16	Z16	X17	Y17	Z17	
873	7.275	0.148626569454848	-0.03474316134017155	4.45483540945045	0.18490644610989085	-0.060084259683724314	4.476287599995263	0.15755409371333312	-0.08161580087586767	4.456210195605915	0.15860455210569377	-0.04630009182726972	4.516913691017447	0.12539575353097188	-0.08363839337328621	4.507965661403864	0.09960850832355705	-0.22822729394362296	4.640730229271859	0.034040272751736905	-0.16665578572064146	4.650204715805083	-0.03168808243730057	-0.25630183750717866	4.846931961370192	-0.07030318236923858	-0.22183443617027135	4.85614729782329	-0.008717588234823043	0.23478326941676547	5.130353142821694	-0.033744238176014525	0.26055950170073766	5.1742407766728595	-0.11316452478995123	-0.1420294943002906	5.0373455053678065	-0.10067647092275701	-0.04145351687220974	5.066296516363817	-0.20789589672317751	-0.1358710836783495	5.428596066945518	-0.18946219880030538	-0.203946344494046	5.407628299539066	-0.1905469469203282	-0.33300418532729487	5.728948350457413	-0.17344038213432636	-0.3498862699248849	5.713867883770344
874	7.283333333333	0.10058204447100683	-0.018644880694110248	4.458229718416239	0.13117872893050472	-0.03834992503671499	4.472999858873011	0.1179346986955512	-0.04344978898579051	4.467714607964327	0.11916835976648645	-0.04230428933283922	4.505770075101684	0.10649113567247108	-0.07082566335745635	4.509590636465288	0.024461547461529152	-0.19349149475671504	4.646049883469564	-0.025509664785036627	-0.15589638622385527	4.6445345771641735	-0.10631339878309799	-0.23966155930271407	4.859303537713129	0.07062738852870701	0.13444805484743472	4.94369876190935	-0.16144856524732262	-0.3123001241821875	5.069153639120485	0.0061956422350901786	0.2295687398504656	5.174589344304915	-0.12454756875544462	-0.15633276475211524	5.02964301595609	-0.09508010161630533	-0.10378287682819397	5.06007257753807	-0.20099688280972397	-0.15159749214492	5.416715282556805	-0.17563230615151607	-0.12201101754170568	5.426494044344076	-0.16893527659111246	-0.34511414265297197	5.732467524177619	-0.15325658838457754	-0.34798344262147707	5.722983174199264
875	7.291666666667	0.08434397780694325	-0.018213728198580685	4.461514406098519	0.11461086713665036	-0.04695795131438539	4.484474108155905	0.08853673042775043	-0.050151236316006806	4.453393595710915	0.10112718118818569	-0.05826180555861749	4.5155383654931205	0.0872945691901158	-0.06815468095848316	4.519922391772197	0.0011309501039276073	-0.20276292392251793	4.654678211460243	0.10245118762490492	0.09917490831077055	4.70412042037971	-0.1014798612270282	-0.2554679045337913	4.85626320526765	0.06127773376238437	0.1429239638184175	4.942590414746047	-0.12832589531374905	-0.3430682710280025	5.062882579603893	-0.023793932466870105	0.26014318746861786	5.1937434635486	-0.11171773237801177	-0.14880658193551416	5.021159886165762	-0.10063174390815857	0.0007284462264327793	5.081353817926097	-0.1724820709584618	-0.2423866066312481	5.360329501452176	-0.16299737570722195	-0.18958195149716484	5.411613204305119	-0.15581959927924133	-0.35306760861048736	5.7234775521347885	-0.13267656078557874	-0.3544202114972619	5.7249483116337005
876	7.3	0.11152800896059281	-0.049389759476823177	4.494741198620438	0.13471164676546438	-0.068076899821911	4.489456013727898	0.13965892172524522	-0.08087724670046409	4.486608074052796	0.07317359455298994	-0.04539201668110812	4.518125858553901	0.09120238135062521	-0.07386043103657824	4.519014086364327	-0.06001538636592495	-0.16727083647538357	4.66989665518781	0.1137275357668856	0.07905590737685696	4.718505304653109	-0.16163689993659533	-0.2227089682900683	4.866142352922758	0.09005859560297046	0.11963162476577875	4.95242809941998	-0.19848728555648962	-0.3246709114293269	5.072298718342428	0.057601048674580636	0.1704348550427154	5.16922695075958	-0.13001671117869404	-0.14553981779209044	5.0486665431090865	-0.08799899395081658	-0.010703946636282354	5.101851329590375	-0.1671169249635975	-0.2475045167016173	5.3723790036707815	-0.154323481141976	-0.2334988950860563	5.430461063863431	-0.14169762482075385	-0.3561466472265264	5.720323996936901	-0.11318166691874468	-0.36827147358271506	5.720121737919856
877	7.308333333333	0.05807929937073619	-0.024812189085598933	4.474901825233885	0.06868832608219237	-0.033496764224786514	4.475000956099686	0.05727991821932753	-0.030964298389508677	4.470072294774576	0.06701457191930757	-0.10616534588462068	4.501321841014318	0.04171285197005438	0.020118848101083654	4.525543177510277	0.10158434706883064	0.09683850819981801	4.681384064741954	0.06328636534625882	0.10765695491474964	4.708943076467201	-0.13065851861716712	-0.24739418227694365	4.861143397759343	-0.17570730930824963	-0.209263976599902	4.867786262238295	-0.178915612870645	-0.3372754463912598	5.079744406656174	-0.21531438234892217	-0.3199711236525222	5.084379874811802	-0.09867936719459752	-0.16351045134950865	5.039079158074424	-0.10337610742157559	-0.0036317105530588247	5.087332383152086	-0.14393960041921647	-0.26501962147902774	5.390526833724818	-0.136318884894394	-0.13871642767050646	5.445592534757102	-0.12009480892791671	-0.3612314106163691	5.726619145084275	-0.08955485973752973	-0.36868162547092326	5.7174554811596074
878	7.316666666667	0.09105946373113084	-0.07340886951838342	4.501572505763903	0.05861123506031003	-0.057313298525307636	4.470206488645475	0.039907839696309025	-0.04350210374083733	4.469014515592766	0.05338483016724497	-0.11802512831872526	4.5004386162222785	-0.004130018427836518	0.04485340486519141	4.517760096396953	0.10046706791265836	0.09443587028277405	4.682630961672779	-0.13484564742112512	-0.14221151636182597	4.650846336067641	0.1050790942982538	0.127918076276657	4.916261726520622	-0.20520173167872105	-0.20361521201668123	4.859235366630749	-0.1827532804277737	-0.33937601250791993	5.0773938785576735	-0.2371915848513045	-0.3114593628012544	5.083646017044736	-0.09124353655177836	-0.17995163971411757	5.032279263456753	-0.1438831549165276	-0.14947362030286268	5.072564187657399	-0.11772093436331052	-0.28008900066530784	5.394058546762251	-0.1369356616453536	-0.13112619484080099	5.449086464219198	-0.09304701058704293	-0.3683725610405747	5.7245975504321995	-0.06883566379947921	-0.3789220575476766	5.7215869279791045
879	7.325	-0.03528229033879925	-0.01009590012618515	4.4329418507356335	0.03981057880174932	-0.05828207831755463	4.467085591785239	-0.009941644535216133	-0.029346296049447836	4.452518240466852	0.035573051586008334	-0.06893431069773695	4.507344615498727	-0.004416736843689575	-0.036639759909582244	4.499979344587502	-0.04579472186855996	-0.2020348952508713	4.63948223913694	-0.1445305157822915	-0.14081219278553173	4.639165403415713	-0.15669665824445678	-0.2499168578025006	4.856935343879091	0.06836428399074164	0.1186200206124915	4.935673433585244	-0.2041469972601857	-0.3349533807104341	5.077200840562534	0.04516392114019184	0.18280057486214232	5.181334513333283	-0.11229926302803202	-0.15950583378343025	5.046125886872285	-0.10694465256228522	0.01023365487161556	5.101087170246288	-0.1167083605056419	-0.2809131108314262	5.388943167131489	-0.12242401210139855	-0.13167927503452273	5.442705941425145	-0.08047963581540109	-0.3709413406296378	5.7264538639823375	-0.048020927639143854	-0.37676735430983727	5.728945446820506
880	7.333333333333	0.04672952961252605	-0.07420242899705135	4.487644503225095	0.022769266834755598	-0.060332920143436414	4.467480347197046	0.015570261443872474	-0.056394596310106855	4.464622885631986	0.009280700587905255	-0.06260466415118215	4.507436141835811	-0.03226660865045889	0.02711356879878213	4.507081738436193	-0.16915147408602507	-0.15429683755700224	4.66951941976115	0.062405509345610476	0.06379138797418588	4.702335425660882	-0.2306550035081748	-0.22716119292548395	4.875869627228434	0.08125558997888244	0.10108781285038879	4.932148291322808	-0.2493521048077112	-0.3250538567292216	5.082317968401376	0.0682346915041331	0.14189357826009152	5.162610426947259	-0.1519564706026917	-0.14594713443903018	5.066636305818355	-0.10782930790855162	0.00518059118299432	5.1148784166019645	-0.09401107771815757	-0.2992237465654345	5.387357414876484	-0.09005842280410449	-0.1475536778307867	5.438936320856963	-0.0671382040732951	-0.37401234601173167	5.723013398471546	-0.025312364417858207	-0.38725212174470014	5.7224828373235255
